<mxfile host="app.diagrams.net" modified="2024-06-20T14:15:12.173Z" agent="Mozilla/5.0 (Windows NT 10.0; Win64; x64) AppleWebKit/537.36 (KHTML, like Gecko) Chrome/125.0.0.0 Safari/537.36" version="24.2.1" etag="Ntbqhop5YYYyJMSlQL9b" type="github">
  <diagram name="페이지-1" id="cN8p7BX2z0_Es6RaO-w8">
    <mxGraphModel>
      <root>
        <mxCell id="0" />
        <mxCell id="1" parent="0" />
      </root>
    </mxGraphModel>
  </diagram>
</mxfile>
